HIERARCHY
ROOT Hips
{
	OFFSET 0.559510 88.370186 5.270278
	CHANNELS 6 Xposition Yposition Zposition Zrotation Yrotation Xrotation 
	JOINT Spine
	{
		OFFSET 0.000000 8.814246 -2.080107
		CHANNELS 3 Zrotation Yrotation Xrotation
		JOINT Spine1
		{
			OFFSET 0.000000 8.844141 0.000000
			CHANNELS 3 Zrotation Yrotation Xrotation
			JOINT Spine2
			{
				OFFSET -0.000000 11.682268 -0.000000
				CHANNELS 3 Zrotation Yrotation Xrotation
				JOINT Spine3
				{
					OFFSET 0.000000 11.746700 0.000000
					CHANNELS 3 Zrotation Yrotation Xrotation
					JOINT Neck
					{
						OFFSET 0.000000 17.658264 0.000000
						CHANNELS 3 Zrotation Yrotation Xrotation
						JOINT Neck1
						{
							OFFSET 0.000000 5.101515 0.000000
							CHANNELS 3 Zrotation Yrotation Xrotation
							JOINT Head
							{
								OFFSET -0.000000 5.101515 -0.000000
								CHANNELS 3 Zrotation Yrotation Xrotation
								JOINT HeadEnd
								{
									OFFSET 0.000000 11.655085 0.000000
									CHANNELS 3 Zrotation Yrotation Xrotation
									End Site
									{
										OFFSET 0.000000 0.000000 0.000000
									}
								}
							}
						}
					}
					JOINT RightShoulder
					{
						OFFSET -2.625389 11.175210 0.000000
						CHANNELS 3 Zrotation Yrotation Xrotation
						JOINT RightArm
						{
							OFFSET 0.000000 10.434715 -0.000000
							CHANNELS 3 Zrotation Yrotation Xrotation
							JOINT RightForeArm
							{
								OFFSET -0.000000 29.628420 0.000000
								CHANNELS 3 Zrotation Yrotation Xrotation
								JOINT RightHand
								{
									OFFSET -0.000000 22.857611 0.000000
									CHANNELS 3 Zrotation Yrotation Xrotation
									JOINT RightHandThumb1
									{
										OFFSET -2.867323 3.959563 2.944291
										CHANNELS 3 Zrotation Yrotation Xrotation
										JOINT RightHandThumb2
										{
											OFFSET -0.000000 3.350399 0.000000
											CHANNELS 3 Zrotation Yrotation Xrotation
											JOINT RightHandThumb3
											{
												OFFSET 0.000000 3.756509 -0.000000
												CHANNELS 3 Zrotation Yrotation Xrotation
												JOINT RightHandThumb4
												{
													OFFSET 0.000000 3.147345 -0.000000
													CHANNELS 3 Zrotation Yrotation Xrotation
													End Site
													{
														OFFSET 0.000000 0.000000 0.000000
													}
												}
											}
										}
									}
									JOINT RightHandIndex1
									{
										OFFSET -0.086752 10.030893 2.345280
										CHANNELS 3 Zrotation Yrotation Xrotation
										JOINT RightHandIndex2
										{
											OFFSET 0.000000 4.061090 -0.000000
											CHANNELS 3 Zrotation Yrotation Xrotation
											JOINT RightHandIndex3
											{
												OFFSET -0.000000 3.248873 0.000000
												CHANNELS 3 Zrotation Yrotation Xrotation
												JOINT RightHandIndex4
												{
													OFFSET 0.000000 2.639709 -0.000000
													CHANNELS 3 Zrotation Yrotation Xrotation
													End Site
													{
														OFFSET 0.000000 0.000000 0.000000
													}
												}
											}
										}
									}
									JOINT RightHandMiddle1
									{
										OFFSET 0.104102 9.502952 0.006768
										CHANNELS 3 Zrotation Yrotation Xrotation
										JOINT RightHandMiddle2
										{
											OFFSET -0.000000 4.568727 0.000000
											CHANNELS 3 Zrotation Yrotation Xrotation
											JOINT RightHandMiddle3
											{
												OFFSET -0.000000 3.654981 0.000000
												CHANNELS 3 Zrotation Yrotation Xrotation
												JOINT RightHandMiddle4
												{
													OFFSET -0.000000 2.741236 0.000000
													CHANNELS 3 Zrotation Yrotation Xrotation
													End Site
													{
														OFFSET 0.000000 0.000000 0.000000
													}
												}
											}
										}
									}
									JOINT RightHandRing1
									{
										OFFSET 0.086752 8.921708 -2.267442
										CHANNELS 3 Zrotation Yrotation Xrotation
										JOINT RightHandRing2
										{
											OFFSET 0.000000 4.061090 -0.000000
											CHANNELS 3 Zrotation Yrotation Xrotation
											JOINT RightHandRing3
											{
												OFFSET 0.000000 3.654981 -0.000000
												CHANNELS 3 Zrotation Yrotation Xrotation
												JOINT RightHandRing4
												{
													OFFSET -0.000000 2.741236 0.000000
													CHANNELS 3 Zrotation Yrotation Xrotation
													End Site
													{
														OFFSET 0.000000 0.000000 0.000000
													}
												}
											}
										}
									}
									JOINT RightHandPinky1
									{
										OFFSET -0.173504 7.976997 -4.467199
										CHANNELS 3 Zrotation Yrotation Xrotation
										JOINT RightHandPinky2
										{
											OFFSET -0.000000 3.350399 -0.000000
											CHANNELS 3 Zrotation Yrotation Xrotation
											JOINT RightHandPinky3
											{
												OFFSET -0.000000 2.842763 0.000000
												CHANNELS 3 Zrotation Yrotation Xrotation
												JOINT RightHandPinky4
												{
													OFFSET -0.000000 2.639709 0.000000
													CHANNELS 3 Zrotation Yrotation Xrotation
													End Site
													{
														OFFSET 0.000000 0.000000 0.000000
													}
												}
											}
										}
									}
									JOINT RightForeArmEnd
									{
										OFFSET 0.000000 0.000000 0.000000
										CHANNELS 3 Zrotation Yrotation Xrotation
										End Site
										{
											OFFSET 0.000000 0.000000 0.000000
										}
									}
								}
								JOINT RightArmEnd
								{
									OFFSET 0.000000 0.000000 0.000000
									CHANNELS 3 Zrotation Yrotation Xrotation
									End Site
									{
										OFFSET 0.000000 0.000000 0.000000
									}
								}
							}
						}
					}
					JOINT LeftShoulder
					{
						OFFSET 2.625389 11.175210 -0.000000
						CHANNELS 3 Zrotation Yrotation Xrotation
						JOINT LeftArm
						{
							OFFSET 0.000000 10.813635 0.000000
							CHANNELS 3 Zrotation Yrotation Xrotation
							JOINT LeftForeArm
							{
								OFFSET 0.000000 28.724781 0.000000
								CHANNELS 3 Zrotation Yrotation Xrotation
								JOINT LeftHand
								{
									OFFSET 0.644384 25.716167 -0.328871
									CHANNELS 3 Zrotation Yrotation Xrotation
									JOINT LeftHandThumb1
									{
										OFFSET 2.867323 3.959563 2.944291
										CHANNELS 3 Zrotation Yrotation Xrotation
										JOINT LeftHandThumb2
										{
											OFFSET 0.000000 3.350399 -0.000000
											CHANNELS 3 Zrotation Yrotation Xrotation
											JOINT LeftHandThumb3
											{
												OFFSET 0.000000 3.756509 0.000000
												CHANNELS 3 Zrotation Yrotation Xrotation
												JOINT LeftHandThumb4
												{
													OFFSET 0.000000 3.100000 0.000000
													CHANNELS 3 Zrotation Yrotation Xrotation
													End Site
													{
														OFFSET 0.000000 0.000000 0.000000
													}
												}
											}
										}
									}
									JOINT LeftHandIndex1
									{
										OFFSET 0.086752 10.030893 2.345280
										CHANNELS 3 Zrotation Yrotation Xrotation
										JOINT LeftHandIndex2
										{
											OFFSET -0.000000 4.061090 -0.000000
											CHANNELS 3 Zrotation Yrotation Xrotation
											JOINT LeftHandIndex3
											{
												OFFSET -0.000000 3.248873 -0.000000
												CHANNELS 3 Zrotation Yrotation Xrotation
												JOINT LeftHandIndex4
												{
													OFFSET -0.000000 2.639709 -0.000000
													CHANNELS 3 Zrotation Yrotation Xrotation
													End Site
													{
														OFFSET 0.000000 0.000000 0.000000
													}
												}
											}
										}
									}
									JOINT LeftHandMiddle1
									{
										OFFSET -0.104102 9.502952 0.006768
										CHANNELS 3 Zrotation Yrotation Xrotation
										JOINT LeftHandMiddle2
										{
											OFFSET 0.000000 4.568727 0.000000
											CHANNELS 3 Zrotation Yrotation Xrotation
											JOINT LeftHandMiddle3
											{
												OFFSET 0.000000 3.654981 0.000000
												CHANNELS 3 Zrotation Yrotation Xrotation
												JOINT LeftHandMiddle4
												{
													OFFSET 0.000000 2.741236 0.000000
													CHANNELS 3 Zrotation Yrotation Xrotation
													End Site
													{
														OFFSET 0.000000 0.000000 0.000000
													}
												}
											}
										}
									}
									JOINT LeftHandRing1
									{
										OFFSET -0.086752 8.921708 -2.267442
										CHANNELS 3 Zrotation Yrotation Xrotation
										JOINT LeftHandRing2
										{
											OFFSET -0.000000 4.061090 -0.000000
											CHANNELS 3 Zrotation Yrotation Xrotation
											JOINT LeftHandRing3
											{
												OFFSET 0.000000 3.654981 -0.000000
												CHANNELS 3 Zrotation Yrotation Xrotation
												JOINT LeftHandRing4
												{
													OFFSET 0.000000 2.741236 0.000000
													CHANNELS 3 Zrotation Yrotation Xrotation
													End Site
													{
														OFFSET 0.000000 0.000000 0.000000
													}
												}
											}
										}
									}
									JOINT LeftHandPinky1
									{
										OFFSET 0.173504 7.976997 -4.467199
										CHANNELS 3 Zrotation Yrotation Xrotation
										JOINT LeftHandPinky2
										{
											OFFSET 0.000000 3.350399 0.000000
											CHANNELS 3 Zrotation Yrotation Xrotation
											JOINT LeftHandPinky3
											{
												OFFSET 0.000000 2.842763 -0.000000
												CHANNELS 3 Zrotation Yrotation Xrotation
												JOINT LeftHandPinky4
												{
													OFFSET -0.000000 2.639709 -0.000000
													CHANNELS 3 Zrotation Yrotation Xrotation
													End Site
													{
														OFFSET 0.000000 0.000000 0.000000
													}
												}
											}
										}
									}
									JOINT LeftForeArmEnd
									{
										OFFSET 0.000000 0.000000 0.000000
										CHANNELS 3 Zrotation Yrotation Xrotation
										End Site
										{
											OFFSET 0.000000 0.000000 0.000000
										}
									}
								}
								JOINT LeftArmEnd
								{
									OFFSET 0.000000 0.000000 0.000000
									CHANNELS 3 Zrotation Yrotation Xrotation
									End Site
									{
										OFFSET 0.000000 0.000000 0.000000
									}
								}
							}
						}
					}
				}
			}
		}
	}
	JOINT RightUpLeg
	{
		OFFSET -11.289943 -0.000000 0.000000
		CHANNELS 3 Zrotation Yrotation Xrotation
		JOINT RightLeg
		{
			OFFSET 0.000000 -38.200325 0.000000
			CHANNELS 3 Zrotation Yrotation Xrotation
			JOINT RightFoot
			{
				OFFSET 0.000000 -39.900856 0.000000
				CHANNELS 3 Zrotation Yrotation Xrotation
				JOINT RightToeBase
				{
					OFFSET 0.000000 0.000000 15.261641
					CHANNELS 3 Zrotation Yrotation Xrotation
					JOINT RightToeBaseEnd
					{
						OFFSET -0.000000 0.000000 7.370709
						CHANNELS 3 Zrotation Yrotation Xrotation
						End Site
						{
							OFFSET 0.000000 0.000000 0.000000
						}
					}
				}
				JOINT RightLegEnd
				{
					OFFSET 0.000000 0.000000 0.000000
					CHANNELS 3 Zrotation Yrotation Xrotation
					End Site
					{
						OFFSET 0.000000 0.000000 0.000000
					}
				}
			}
			JOINT RightUpLegEnd
			{
				OFFSET 0.000000 0.000000 0.000000
				CHANNELS 3 Zrotation Yrotation Xrotation
				End Site
				{
					OFFSET 0.000000 0.000000 0.000000
				}
			}
		}
	}
	JOINT LeftUpLeg
	{
		OFFSET 11.315661 -0.000000 -0.000000
		CHANNELS 3 Zrotation Yrotation Xrotation
		JOINT LeftLeg
		{
			OFFSET 0.000000 -38.200325 0.000000
			CHANNELS 3 Zrotation Yrotation Xrotation
			JOINT LeftFoot
			{
				OFFSET -0.000000 -39.900856 -0.000000
				CHANNELS 3 Zrotation Yrotation Xrotation
				JOINT LeftToeBase
				{
					OFFSET 0.000000 0.000000 15.261641
					CHANNELS 3 Zrotation Yrotation Xrotation
					JOINT LeftToeBaseEnd
					{
						OFFSET -0.000000 0.000000 7.539996
						CHANNELS 3 Zrotation Yrotation Xrotation
						End Site
						{
							OFFSET 0.000000 0.000000 0.000000
						}
					}
				}
				JOINT LeftLegEnd
				{
					OFFSET 0.000000 0.000000 0.000000
					CHANNELS 3 Zrotation Yrotation Xrotation
					End Site
					{
						OFFSET 0.000000 0.000000 0.000000
					}
				}
			}
			JOINT LeftUpLegEnd
			{
				OFFSET 0.000000 0.000000 0.000000
				CHANNELS 3 Zrotation Yrotation Xrotation
				End Site
				{
					OFFSET 0.000000 0.000000 0.000000
				}
			}
		}
	}
}
MOTION
Frames: 4
Frame Time: 0.016667
35.146713 87.254128 21.336317 -2.805217 19.234354 -8.277000 0.506669 0.053883 6.833277 -0.932637 0.792842 3.053247 -1.421246 1.420660 5.811162 -0.780860 0.780666 4.452410 15.090344 -11.326716 -2.874871 1.839572 -5.522773 -7.160522 1.964546 -0.923486 -15.125716 0.000000 0.000000 0.000000 89.000435 -0.400619 12.343082 54.276661 -40.795563 10.692394 -1.561205 9.252274 28.961178 14.643514 -3.444587 2.835892 13.591795 -2.138919 38.387199 -0.000005 0.000038 -33.540470 0.000046 0.000032 -23.289043 0.000008 -0.000003 -0.000043 27.785168 0.098338 -7.103831 19.109755 -0.089197 -0.062690 18.846954 -0.060413 -0.124036 -0.000008 0.000038 -0.000022 26.396761 0.015190 -7.327384 18.033859 -0.039759 -0.016913 18.265268 -0.020696 -0.034855 0.000023 -0.000064 0.000014 27.551189 -0.036697 -5.540431 18.825066 0.119336 0.042911 18.654535 0.040170 0.054714 0.000010 -0.000368 0.000001 25.228348 -0.180274 -4.735845 18.449341 0.334404 0.241304 18.408081 0.181099 0.281442 -0.000893 -0.000010 -0.000009 0.000000 0.000000 0.000000 0.000000 0.000000 0.000000 -83.433220 0.711309 5.191264 -63.870857 23.104073 -5.993722 -1.119302 -7.411634 39.980423 1.590855 1.689928 -17.398651 -12.626122 1.905052 39.051659 -0.000019 0.000025 -30.520918 0.000177 -0.000001 -21.045017 -0.001291 -0.000017 -0.001139 -23.075123 0.154188 -9.395461 -16.451397 -0.110085 -0.199842 -17.213909 -0.094411 -0.030795 0.000022 -0.002546 0.000021 -21.831253 0.075283 -8.105526 -16.311895 -0.060419 -0.063456 -16.334715 -0.025641 -0.010627 -0.000570 -0.000059 -0.000049 -25.511330 -0.051488 -5.740539 -18.377165 0.113279 0.036512 -18.163460 0.050159 0.055898 0.001310 0.000009 0.000010 -26.963423 -0.263021 -4.116832 -18.866308 0.302631 0.392792 -18.812471 0.188128 0.173894 0.001146 -0.000005 -0.000043 0.000000 0.000000 0.000000 0.000000 0.000000 0.000000 -10.545669 -3.582842 2.800561 -0.445409 -0.990739 32.123817 9.783998 -20.981510 24.119644 0.031954 1.328173 -27.038771 0.000000 0.000000 0.000000 0.000000 0.000000 0.000000 0.000000 0.000000 0.000000 -1.314159 -12.445325 -1.773008 0.021543 -0.160033 23.052711 3.811280 6.272154 14.177757 0.420237 -0.701047 -20.572477 0.000000 0.000000 0.000000 0.000000 0.000000 0.000000 0.000000 0.000000 0.000000 
35.158577 87.308052 21.368694 -2.940963 18.552101 -8.278987 0.483238 0.045494 6.835610 -0.967132 0.781011 2.992455 -1.343473 1.204363 5.851115 -0.721304 0.699544 4.433744 14.863587 -11.093122 -2.808698 1.826452 -5.331555 -7.088746 1.890638 -0.932360 -15.105644 0.000000 0.000000 0.000000 89.146179 -0.415306 12.241673 55.050259 -40.166176 10.053003 -1.510151 9.418044 27.486866 14.426858 -2.662752 2.481406 13.563473 -2.133899 38.406109 -0.000006 0.000038 -33.448090 0.000047 0.000033 -23.226978 0.000008 -0.000003 -0.000043 27.724190 0.101559 -7.147969 19.100334 -0.094589 -0.049021 18.831635 -0.065380 -0.112453 -0.000008 0.000038 -0.000022 26.308369 0.016270 -7.360109 18.023157 -0.041844 -0.010349 18.259151 -0.022397 -0.029332 0.000023 -0.000073 0.000013 27.515146 -0.037425 -5.521863 18.827812 0.123810 0.035595 18.652794 0.042942 0.048304 0.000009 -0.000421 0.000001 25.215340 -0.182327 -4.675251 18.468891 0.347870 0.216450 18.418760 0.190999 0.263683 -0.000904 -0.000009 -0.000009 0.000000 0.000000 0.000000 0.000000 0.000000 0.000000 -83.527489 0.718109 5.276785 -64.041061 23.425194 -5.759010 -1.083334 -7.318306 39.735394 1.363117 1.400633 -17.385763 -12.844702 1.916008 38.956562 -0.000019 0.000025 -31.072414 0.000172 -0.000001 -21.437611 -0.001483 -0.000017 -0.001218 -24.223581 0.156173 -9.648416 -17.110867 -0.107458 -0.189228 -17.867512 -0.091769 -0.022216 0.000022 -0.002530 0.000021 -22.956680 0.076204 -8.230931 -16.966494 -0.059483 -0.059774 -16.990738 -0.024844 -0.007985 -0.000519 -0.000060 -0.000056 -26.692751 -0.052084 -5.678587 -19.084473 0.111471 0.030651 -18.878353 0.048932 0.052855 0.001383 0.000009 0.000010 -28.120922 -0.266936 -3.852348 -19.575720 0.298026 0.373266 -19.516148 0.183560 0.158821 0.001118 -0.000005 -0.000044 0.000000 0.000000 0.000000 0.000000 0.000000 0.000000 -10.314774 -3.533981 2.732012 -0.442814 -0.994107 31.686022 9.613748 -20.792589 24.393024 0.029720 1.338344 -26.982008 0.000000 0.000000 0.000000 0.000000 0.000000 0.000000 0.000000 0.000000 0.000000 -1.135919 -12.132406 -1.565682 0.019157 -0.159152 22.907515 3.781423 6.602180 14.160069 0.444805 -0.686076 -20.546770 0.000000 0.000000 0.000000 0.000000 0.000000 0.000000 0.000000 0.000000 0.000000 
35.171631 87.371979 21.400484 -3.068766 17.863644 -8.272935 0.465966 0.037104 6.836190 -0.994474 0.768598 2.925713 -1.273247 1.006185 5.886740 -0.665943 0.625211 4.407554 14.629454 -10.857043 -2.730755 1.810938 -5.143753 -7.011227 1.817291 -0.940882 -15.090527 0.000000 0.000000 0.000000 89.291481 -0.427689 12.150601 55.769314 -39.581615 9.477171 -1.461921 9.584188 26.169451 14.218637 -1.952214 2.134028 13.535823 -2.128875 38.424919 -0.000006 0.000038 -33.357689 0.000047 0.000033 -23.166752 0.000008 -0.000003 -0.000044 27.664612 0.104635 -7.186631 19.089909 -0.099729 -0.036102 18.815891 -0.070121 -0.101275 -0.000009 0.000038 -0.000022 26.223310 0.017291 -7.389201 18.011076 -0.043831 -0.004085 18.251963 -0.024017 -0.023996 0.000023 -0.000080 0.000013 27.481537 -0.038185 -5.503001 18.828907 0.128018 0.028626 18.650261 0.045607 0.042123 0.000009 -0.000472 0.000002 25.207802 -0.184365 -4.620478 18.487354 0.360689 0.192839 18.429358 0.200415 0.246798 -0.000913 -0.000009 -0.000009 0.000000 0.000000 0.000000 0.000000 0.000000 0.000000 -83.628616 0.725559 5.352228 -64.197327 23.729216 -5.529536 -1.048540 -7.229014 39.499920 1.162971 1.119059 -17.351957 -13.061666 1.925585 38.863144 -0.000020 0.000025 -31.619837 0.000167 -0.000000 -21.828182 -0.001660 -0.000016 -0.001281 -25.351135 0.158102 -9.875905 -17.768673 -0.104425 -0.177823 -18.519032 -0.088691 -0.013165 0.000022 -0.002503 0.000021 -24.064026 0.077133 -8.338236 -17.619127 -0.058376 -0.055745 -17.644520 -0.023940 -0.005209 -0.000469 -0.000061 -0.000062 -27.853638 -0.052657 -5.609816 -19.788300 0.109378 0.024358 -19.590256 0.047541 0.049485 0.001458 0.000009 0.000010 -29.259241 -0.270439 -3.589875 -20.281675 0.292560 0.352089 -20.216774 0.178293 0.142654 0.001089 -0.000005 -0.000044 0.000000 0.000000 0.000000 0.000000 0.000000 0.000000 -10.096521 -3.494264 2.690322 -0.439957 -0.998008 31.201567 9.447289 -20.591232 24.678175 0.025404 1.347461 -26.927561 0.000000 0.000000 0.000000 0.000000 0.000000 0.000000 0.000000 0.000000 0.000000 -0.968644 -11.820979 -1.335939 0.016407 -0.158087 22.714226 3.758124 6.909340 14.163567 0.467967 -0.671789 -20.526508 0.000000 0.000000 0.000000 0.000000 0.000000 0.000000 0.000000 0.000000 0.000000 
35.186661 87.442482 21.431322 -3.187180 17.166126 -8.260486 0.453674 0.029174 6.836326 -1.015231 0.755690 2.856655 -1.210145 0.825696 5.916751 -0.614823 0.557481 4.374741 14.390553 -10.615861 -2.643667 1.794363 -4.955943 -6.929301 1.743594 -0.949200 -15.080484 0.000000 0.000000 0.000000 89.432388 -0.437735 12.068500 56.442268 -39.043388 8.961823 -1.416697 9.749706 25.009102 14.021022 -1.317421 1.800054 13.509620 -2.123842 38.443336 -0.000007 0.000038 -33.270847 0.000047 0.000034 -23.109659 0.000007 -0.000004 -0.000044 27.609913 0.107596 -7.219618 19.080360 -0.104426 -0.024263 18.801691 -0.074445 -0.090820 -0.000009 0.000039 -0.000023 26.145538 0.018272 -7.414834 17.999695 -0.045632 0.001718 18.245670 -0.025496 -0.019003 0.000023 -0.000087 0.000012 27.455311 -0.038978 -5.484717 18.830784 0.131843 0.022282 18.649305 0.048068 0.036381 0.000008 -0.000523 0.000003 25.211468 -0.186382 -4.573252 18.507072 0.372472 0.171321 18.442036 0.209033 0.231377 -0.000920 -0.000009 -0.000009 0.000000 0.000000 0.000000 0.000000 0.000000 0.000000 -83.734947 0.733286 5.416887 -64.349289 24.006701 -5.308881 -1.014934 -7.147395 39.277748 0.988840 0.843176 -17.297483 -13.277018 1.933859 38.771343 -0.000020 0.000026 -32.162960 0.000162 0.000000 -22.216257 -0.001821 -0.000016 -0.001332 -26.460461 0.160007 -10.080766 -18.425074 -0.100885 -0.165131 -19.168947 -0.085087 -0.003205 0.000022 -0.002470 0.000021 -25.155975 0.078059 -8.429240 -18.270540 -0.057054 -0.051200 -18.296925 -0.022893 -0.002152 -0.000418 -0.000062 -0.000068 -28.997652 -0.053218 -5.535876 -20.490005 0.106938 0.017414 -20.300156 0.045941 0.045611 0.001533 0.000008 0.000010 -30.382992 -0.273635 -3.331374 -20.985903 0.286111 0.328748 -20.916021 0.172234 0.124976 0.001060 -0.000005 -0.000045 0.000000 0.000000 0.000000 0.000000 0.000000 0.000000 -9.892542 -3.456217 2.666679 -0.436916 -1.002182 30.690931 9.286990 -20.376114 24.967239 0.019472 1.355725 -26.874872 0.000000 0.000000 0.000000 0.000000 0.000000 0.000000 0.000000 0.000000 0.000000 -0.811736 -11.509109 -1.089101 0.013395 -0.156973 22.485294 3.739030 7.199265 14.182685 0.489894 -0.658490 -20.510674 0.000000 0.000000 0.000000 0.000000 0.000000 0.000000 0.000000 0.000000 0.000000 
